<?xml version="1.0" encoding="utf-8"?>
<!-- Generator: Adobe Illustrator 19.0.0, SVG Export Plug-In . SVG Version: 6.00 Build 0)  -->
<svg version="1.1" id="图层_1" xmlns="http://www.w3.org/2000/svg" xmlns:xlink="http://www.w3.org/1999/xlink" x="0px" y="0px"
	 viewBox="56 -91 212 212" enable-background="new 56 -91 212 212" xml:space="preserve">
<path fill="#AAAAAA" d="M175.3-73.2c0.1-6.7-5.2-12.2-11.9-12.3c0,0,0,0-0.1,0c-8,0-13.3,5.5-13.3,12.3V2.9h-76
	c-6.7,0-12,5.5-12,12.3s5.3,12.3,12,12.3h76v75.8c0,6.8,5.3,12.3,13.3,12.3c6.7,0,12-5.5,12-12.3V27.5h73.3
	c6.7,0,13.3-5.5,13.3-12.3s-6.7-12.3-13.3-12.3h-73.3L175.3-73.2L175.3-73.2z"/>
</svg>
