<?xml version="1.0" encoding="utf-8"?>
<!-- Generator: Adobe Illustrator 19.0.0, SVG Export Plug-In . SVG Version: 6.00 Build 0)  -->
<svg version="1.1" id="图层_1" xmlns="http://www.w3.org/2000/svg" xmlns:xlink="http://www.w3.org/1999/xlink" x="0px" y="0px"
	 viewBox="50 -85 200 200" enable-background="new 50 -85 200 200" xml:space="preserve">
<path fill="#333333" d="M227.8,0.1c0-6.1,5-11.1,11.1-11.1C245-11,250-6,250,0.1v92.7c0,12.3-9.9,22.2-22.2,22.2H72.2
	C59.9,115,50,105.1,50,92.8V-62.8C50-75.1,59.9-85,72.2-85h155.6c12.3,0,22.2,9.9,22.2,22.2v17.4c0,6.1-5,11.1-11.1,11.1
	c-6.1,0-11.1-5-11.1-11.1v-17.4H72.2V92.8h155.6V0.1z M189.3-14.7c4.1-4.5,11.2-4.9,15.7-0.7c4.5,4.1,4.9,11.2,0.7,15.7L154.1,57
	c-4.3,4.7-11.7,4.9-16.2,0.3l-29.2-30c-4.3-4.4-4.2-11.4,0.2-15.7c4.4-4.3,11.4-4.2,15.7,0.2l21,21.6L189.3-14.7L189.3-14.7z"/>
</svg>
