<?xml version="1.0" encoding="utf-8"?>
<!-- Generator: Adobe Illustrator 19.0.0, SVG Export Plug-In . SVG Version: 6.00 Build 0)  -->
<svg version="1.1" id="图层_1" xmlns="http://www.w3.org/2000/svg" xmlns:xlink="http://www.w3.org/1999/xlink" x="0px" y="0px"
	 viewBox="50 -85 200 200" enable-background="new 50 -85 200 200" xml:space="preserve">
<path fill="#AAAAAA" d="M97.1,67.9c2.8,2.8,6.4,4.2,10.1,4.2c3.7,0,7.3-1.4,10.1-4.2l85.7-85.7c5.6-5.6,5.6-14.6,0-20.2
	c-5.6-5.6-14.6-5.6-20.2,0L97.1,47.7C91.5,53.3,91.5,62.3,97.1,67.9z"/>
<path fill="#AAAAAA" d="M235.7,0.7c-7.9,0-14.3,6.4-14.3,14.3v71.4H78.6V-56.4H150c7.9,0,14.3-6.4,14.3-14.3S157.9-85,150-85H78.6
	C62.8-85,50-72.2,50-56.4V86.4c0,15.8,12.8,28.6,28.6,28.6h142.8c15.8,0,28.6-12.8,28.6-28.6V15C250,7.1,243.6,0.7,235.7,0.7
	L235.7,0.7z"/>
</svg>
