<?xml version="1.0" standalone="no"?><!DOCTYPE svg PUBLIC "-//W3C//DTD SVG 1.1//EN" "http://www.w3.org/Graphics/SVG/1.1/DTD/svg11.dtd"><svg t="1605245050652" class="icon" viewBox="0 0 1024 1024" version="1.1" xmlns="http://www.w3.org/2000/svg" p-id="670" xmlns:xlink="http://www.w3.org/1999/xlink" width="200" height="200"><defs><style type="text/css"></style></defs><path d="M512 0a512 512 0 1 1 0 1024 512 512 0 0 1 0-1024z m336.554667 222.754133a34.065067 34.065067 0 0 1-4.3008 5.256534l-615.287467 615.355733a34.2016 34.2016 0 0 1-6.417067 4.983467 443.733333 443.733333 0 0 0 626.005334-625.595734zM512 68.266667a443.733333 443.733333 0 0 0-336.2816 733.184 29.832533 29.832533 0 0 1 4.9152-6.417067l615.355733-615.287467a34.269867 34.269867 0 0 1 5.188267-4.3008A441.9584 441.9584 0 0 0 512 68.266667z" p-id="671"></path></svg>