<?xml version="1.0" encoding="utf-8"?>
<!-- Generator: Adobe Illustrator 19.0.0, SVG Export Plug-In . SVG Version: 6.00 Build 0)  -->
<svg version="1.1" id="图层_1" xmlns="http://www.w3.org/2000/svg" xmlns:xlink="http://www.w3.org/1999/xlink" x="0px" y="0px"
	 viewBox="50 -85 200 200" enable-background="new 50 -85 200 200" xml:space="preserve">
<g>
	<path fill="#AAAAAA" d="M225.6,95.5H74.4c-5.2,0-9.4-4.2-9.4-9.4V-23.1c0-5.2,4.2-9.4,9.4-9.4h151.1c5.2,0,9.4,4.2,9.4,9.4V86
		C235,91.2,230.8,95.5,225.6,95.5L225.6,95.5z M74.4-23.1V86h151.2V-23.1H74.4z"/>
	<path fill="#AAAAAA" d="M178.3-23.1h-56.7c-5.2,0-9.4-4.2-9.4-9.4v-13.6c0-5.2,4.2-9.4,9.4-9.4h56.7c5.2,0,9.4,4.2,9.4,9.4v13.6
		C187.8-27.4,183.5-23.1,178.3-23.1z M121.7-46.2v13.6h56.7v-13.6C178.3-46.2,121.7-46.2,121.7-46.2z M69.7,9.2h160.6v9.4H69.7V9.2z
		"/>
	<path fill="#AAAAAA" d="M150.1,39.6c-14.2,0-25.7-11.5-25.7-25.7h9.4c0,9,7.3,16.3,16.3,16.3s16.3-7.3,16.3-16.3h9.4
		C175.8,28.1,164.3,39.6,150.1,39.6z"/>
</g>
</svg>
