<?xml version="1.0" encoding="utf-8"?>
<!-- Generator: Adobe Illustrator 19.0.0, SVG Export Plug-In . SVG Version: 6.00 Build 0)  -->
<svg version="1.1" id="图层_1" xmlns="http://www.w3.org/2000/svg" xmlns:xlink="http://www.w3.org/1999/xlink" x="0px" y="0px"
	 viewBox="50 -85 200 200" style="enable-background:new 50 -85 200 200;" xml:space="preserve">
<style type="text/css">
	.st0{fill:#333333;}
</style>
<path class="st0" d="M233.7-19v-18.4c0-4.6-3.7-8.3-8.3-8.3H115.9l-3.8-3.8H70.2c-4.2,0-7.6,3.4-7.6,7.6V87.4c0,4.2,3.4,7.6,7.6,7.6
	h159.7c4.2,0,7.6-3.4,7.6-7.6V-19H233.7L233.7-19z M225.4-38c0.4,0,0.6,0.3,0.6,0.6V-19h-7.6v-8.8c0-3.5-2.9-6.3-6.3-6.3h-84.9
	l-3.8-3.8C123.5-38,225.4-38,225.4-38z M214.7-19h-72.2l-11.4-11.4h81.1c1.4,0,2.6,1.1,2.6,2.6v8.8H214.7z M229.9,87.4H70.2l0,0
	V-41.8l0,0h38.7l28.2,28.2l2.2,2.2h90.6L229.9,87.4L229.9,87.4z"/>
</svg>
