<?xml version="1.0" standalone="no"?><!DOCTYPE svg PUBLIC "-//W3C//DTD SVG 1.1//EN" "http://www.w3.org/Graphics/SVG/1.1/DTD/svg11.dtd"><svg t="1605245070426" class="icon" viewBox="0 0 1024 1024" version="1.1" xmlns="http://www.w3.org/2000/svg" p-id="928" xmlns:xlink="http://www.w3.org/1999/xlink" width="200" height="200"><defs><style type="text/css"></style></defs><path d="M512 819.2c-28.248276 0-52.965517-24.717241-52.965517-52.965517V670.896552c0-28.248276 24.717241-52.965517 52.965517-52.965518 137.710345 0 247.172414-112.993103 247.172414-247.172413s-109.462069-247.172414-247.172414-247.172414-247.172414 112.993103-247.172414 247.172414c0 28.248276 3.531034 60.027586 14.124138 88.275862 10.593103 28.248276-3.531034 56.496552-31.77931 67.089655-28.248276 10.593103-56.496552-3.531034-67.089655-31.77931-14.124138-38.841379-21.186207-81.213793-21.186207-123.586207 0-194.206897 158.896552-353.103448 353.103448-353.103449s353.103448 158.896552 353.103448 353.103449c0 176.551724-130.648276 324.855172-300.137931 349.572413v45.903449c0 28.248276-24.717241 52.965517-52.965517 52.965517z" p-id="929"></path><path d="M437.848276 949.848276a74.151724 74.151724 0 1 0 148.303448 0 74.151724 74.151724 0 1 0-148.303448 0Z" p-id="930"></path></svg>