<?xml version="1.0" standalone="no"?><!DOCTYPE svg PUBLIC "-//W3C//DTD SVG 1.1//EN" "http://www.w3.org/Graphics/SVG/1.1/DTD/svg11.dtd"><svg t="1601199009567" class="icon" viewBox="0 0 1024 1024" version="1.1" xmlns="http://www.w3.org/2000/svg" p-id="1879" xmlns:xlink="http://www.w3.org/1999/xlink" width="200" height="200"><defs><style type="text/css"></style></defs><path d="M416 544c35.3456 0 64 28.6544 64 64v256c0 35.3456-28.6544 64-64 64H160c-35.3456 0-64-28.6544-64-64V608c0-35.3456 28.6544-64 64-64h256z m488 304c13.2544 0 24 10.7456 24 24 0 13.2544-10.7456 24-24 24H568c-13.2544 0-24-10.7456-24-24 0-13.2544 10.7456-24 24-24h336zM416 592H160c-8.8368 0-16 7.1632-16 16v256c0 8.8368 7.1632 16 16 16h256c8.8368 0 16-7.1632 16-16V608c0-8.8368-7.1632-16-16-16z m488 16c13.2544 0 24 10.7456 24 24 0 13.2544-10.7456 24-24 24H568c-13.2544 0-24-10.7456-24-24 0-13.2544 10.7456-24 24-24h336zM416 96c35.3456 0 64 28.6544 64 64v256c0 35.3456-28.6544 64-64 64H160c-35.3456 0-64-28.6544-64-64V160c0-35.3456 28.6544-64 64-64h256z m0 48H160c-8.8368 0-16 7.1632-16 16v256c0 8.8368 7.1632 16 16 16h256c8.8368 0 16-7.1632 16-16V160c0-8.8368-7.1632-16-16-16z m488 224c13.2544 0 24 10.7456 24 24 0 13.2544-10.7456 24-24 24H568c-13.2544 0-24-10.7456-24-24 0-13.2544 10.7456-24 24-24h336z m0-240c13.2544 0 24 10.7456 24 24 0 13.2544-10.7456 24-24 24H568c-13.2544 0-24-10.7456-24-24 0-13.2544 10.7456-24 24-24h336z" fill="#AAAAAA" p-id="1880"></path></svg>