<?xml version="1.0" standalone="no"?><!DOCTYPE svg PUBLIC "-//W3C//DTD SVG 1.1//EN" "http://www.w3.org/Graphics/SVG/1.1/DTD/svg11.dtd"><svg t="1605245066341" class="icon" viewBox="0 0 1024 1024" version="1.1" xmlns="http://www.w3.org/2000/svg" p-id="802" xmlns:xlink="http://www.w3.org/1999/xlink" width="200" height="200"><defs><style type="text/css"></style></defs><path d="M690.869991 885.8567c-16.986509 0-32.847407-9.107225-41.340662-23.84251L512 623.793744 374.470671 862.01419c-8.493255 14.735285-24.354152 23.84251-41.340662 23.84251-8.390926 0-16.577196-2.251224-23.944839-6.446687l-14.018986-8.083941c-11.051464-6.446687-19.033077-16.679524-22.307585-28.958929-3.274508-12.279404-1.637254-25.172779 4.809433-36.224243L415.197362 567.922454H140.138703c-26.298391 0-47.68502-21.488958-47.685021-47.787349V503.967223c0-26.400719 21.386629-47.787349 47.685021-47.787349h275.058659L277.668032 217.959428c-6.344359-11.051464-8.083941-23.84251-4.707105-36.224243 3.274508-12.279404 11.256121-22.61457 22.307585-29.061257l14.018987-8.083941c7.265314-4.195463 15.553912-6.446687 23.944838-6.446687 16.986509 0 32.847407 9.107225 41.340662 23.84251L512 400.206256l137.529329-238.118118c8.493255-14.735285 24.354152-23.84251 41.340662-23.84251 8.390926 0 16.577196 2.251224 23.944839 6.446687l14.018986 8.083942c11.051464 6.446687 19.033077 16.679524 22.307585 28.958928 3.274508 12.279404 1.637254 25.172779-4.809433 36.224243L608.802638 456.077546h275.058659c26.298391 0 47.68502 21.488958 47.685021 47.787349v16.167882c0 26.400719-21.386629 47.787349-47.685021 47.787349h-275.058659L746.331968 806.040572c6.344359 11.051464 8.083941 23.84251 4.707105 36.224243-3.274508 12.279404-11.256121 22.61457-22.307585 29.061257l-14.018987 8.083941c-7.265314 4.195463-15.553912 6.446687-23.84251 6.446687z" p-id="803"></path></svg>