<?xml version="1.0" standalone="no"?><!DOCTYPE svg PUBLIC "-//W3C//DTD SVG 1.1//EN" "http://www.w3.org/Graphics/SVG/1.1/DTD/svg11.dtd"><svg t="1606574920556" class="icon" viewBox="0 0 1024 1024" version="1.1" xmlns="http://www.w3.org/2000/svg" p-id="751" xmlns:xlink="http://www.w3.org/1999/xlink" width="200" height="200"><defs><style type="text/css"></style></defs><path d="M512 1024C229.2224 1024 0 794.7776 0 512S229.2224 0 512 0s512 229.2224 512 512-229.2224 512-512 512z m0-102.4c226.2272 0 409.6-183.3728 409.6-409.6S738.2272 102.4 512 102.4 102.4 285.7728 102.4 512s183.3728 409.6 409.6 409.6z m-51.2-512a51.2 51.2 0 1 1-102.4 0 153.6 153.6 0 1 1 230.272 133.12v-0.0512a51.2 51.2 0 0 0-25.5232 41.984l0.0512 2.3552a51.2 51.2 0 1 1-102.4 0h-0.1024a153.5488 153.5488 0 0 1 76.8512-133.0688v0.0256A51.2 51.2 0 1 0 460.8 409.6z m51.2 382.208a51.2 51.2 0 1 1 0-102.4 51.2 51.2 0 0 1 0 102.4z" p-id="752" fill="#333333"></path></svg>