<?xml version="1.0" encoding="utf-8"?>
<!-- Generator: Adobe Illustrator 19.0.0, SVG Export Plug-In . SVG Version: 6.00 Build 0)  -->
<svg version="1.1" id="图层_1" xmlns="http://www.w3.org/2000/svg" xmlns:xlink="http://www.w3.org/1999/xlink" x="0px" y="0px"
	 viewBox="50 -85 200 200" enable-background="new 50 -85 200 200" xml:space="preserve">
<path fill="#AAAAAA" d="M231.4,12.1c-2,0-3.6,1.6-3.6,3.6c0,10.5-2.1,20.7-6.1,30.2c-3.9,9.3-9.5,17.6-16.7,24.7
	c-7.1,7.1-15.4,12.7-24.7,16.7c-9.6,4.1-19.8,6.1-30.2,6.1s-20.7-2.1-30.2-6.1c-9.3-3.9-17.6-9.5-24.7-16.7
	c-7.1-7.1-12.7-15.4-16.7-24.7c-4.1-9.6-6.1-19.8-6.1-30.2S74.5-5,78.5-14.5c3.9-9.3,9.5-17.6,16.7-24.7
	c7.1-7.1,15.4-12.7,24.7-16.7c9.6-4.1,19.8-6.1,30.2-6.1c16.1,0,31.6,5,44.7,14.1l-19,3.2c-2,0.3-3.3,2.2-3,4.2c0.3,1.8,1.8,3,3.6,3
	c0.2,0,0.4,0,0.6-0.1l27.4-4.6c2-0.3,3.3-2.2,3-4.2l-4.3-25.3c-0.3-2-2.2-3.3-4.2-3s-3.3,2.2-3,4.2l2.7,16.5
	c-14.2-9.9-31.1-15.3-48.6-15.3c-11.5,0-22.6,2.2-33.1,6.7c-10.1,4.3-19.2,10.4-27,18.2S76-27.5,71.7-17.4C67.3-6.9,65,4.2,65,15.7
	s2.2,22.6,6.7,33.1C76,58.9,82.1,68,89.9,75.8s16.9,13.9,27,18.2c10.5,4.4,21.6,6.7,33.1,6.7s22.6-2.2,33.1-6.7
	c10.1-4.3,19.2-10.4,27-18.2s13.9-16.9,18.2-27c4.4-10.5,6.7-21.6,6.7-33.1C235,13.7,233.4,12.1,231.4,12.1z"/>
</svg>
