<?xml version="1.0" encoding="utf-8"?>
<!-- Generator: Adobe Illustrator 19.0.0, SVG Export Plug-In . SVG Version: 6.00 Build 0)  -->
<svg version="1.1" id="图层_1" xmlns="http://www.w3.org/2000/svg" xmlns:xlink="http://www.w3.org/1999/xlink" x="0px" y="0px"
	 viewBox="50 -85 200 200" enable-background="new 50 -85 200 200" xml:space="preserve">
<path fill="#333333" d="M185-16.7c0,6.3-1.5,12.2-4.4,17.5c-2.9,5.4-6.8,10-11.7,13.9c-4.9,3.9-8.3,7.8-10.2,11.7
	c-1.9,3.9-2.9,6.6-2.9,8v5.1h-13.1v-7.3c0-4.4,1.1-8.6,3.3-12.8c2.2-4.1,5.9-8.6,11.3-13.5c3.9-3.4,6.6-6.9,8-10.6s2.2-7.2,2.2-10.6
	c0-6.3-1.5-11-4.4-14.2c-2.9-3.1-7-4.7-12.4-4.7c-5.4,0-9.8,2.1-13.5,6.2c-3.7,4.1-5.5,10.8-5.5,20.1H115
	c0.5-13.6,4.1-23.7,10.9-30.3c6.8-6.6,15.1-9.8,24.8-9.8c10.7,0,19.1,2.9,25.1,8.7C182-33.5,185-25.9,185-16.7L185-16.7z
	 M157.3,78.1h-16.1V60.6h16.1V78.1z"/>
</svg>
